<?xml version="1.0" encoding="UTF-8"?>
<svg id="Layer_2" data-name="Layer 2" xmlns="http://www.w3.org/2000/svg" viewBox="0 0 94.31 94.41">
  <defs>
    <style>
      .cls-1 {
        fill: #ffc773;
      }

      .cls-1, .cls-2, .cls-3, .cls-4, .cls-5, .cls-6, .cls-7, .cls-8, .cls-9 {
        stroke-width: 0px;
      }

      .cls-2 {
        fill: #eddcdc;
      }

      .cls-3 {
        fill: #74a6a0;
      }

      .cls-4 {
        opacity: .2;
      }

      .cls-5 {
        fill: #7a7a7a;
      }

      .cls-6 {
        fill: #fff;
      }

      .cls-7 {
        fill: #ededed;
      }

      .cls-8 {
        fill: #d97777;
      }

      .cls-9 {
        fill: #3d4957;
      }
    </style>
  </defs>
  <g id="Layer_1-2" data-name="Layer 1">
    <g>
      <g>
        <path class="cls-3" d="m47.62,0h-.94C23.77,0,4.72,16.52.77,38.29c-.49,2.72-.77,5.52-.77,8.39v1.05c0,25.78,20.9,46.68,46.68,46.68h.94c2.22,0,4.4-.17,6.54-.47,22.68-3.18,40.14-22.65,40.14-46.22v-1.05C94.31,20.9,73.41,0,47.62,0Z"/>
        <path class="cls-4" d="m12.81,26.24L.77,38.29c-.49,2.72-.77,5.52-.77,8.39v1.05c0,25.78,20.9,46.68,46.68,46.68h.94c2.22,0,4.4-.17,6.54-.47l21.34-21.34L12.81,26.24Z"/>
      </g>
      <g>
        <polygon class="cls-6" points="82.49 28.98 12.25 28.98 12.25 28.94 12.81 26.24 81.75 26.24 82.49 28.94 82.49 28.98"/>
        <polygon class="cls-5" points="75.49 41.62 19.25 41.62 12.25 28.98 82.49 28.98 75.49 41.62"/>
        <polygon class="cls-9" points="74.03 40.03 20.6 40.03 15.01 30.05 79.52 30.05 74.03 40.03"/>
        <polygon class="cls-2" points="73.65 36.28 23.72 36.28 21.19 31.29 76.39 31.29 73.65 36.28"/>
        <polygon class="cls-8" points="69.3 39.27 62.77 39.27 64.49 35.04 71.68 35.04 69.3 39.27"/>
        <polygon class="cls-7" points="66.9 38.62 63.63 38.62 64.49 36.51 68.08 36.51 66.9 38.62"/>
        <polygon class="cls-1" points="75.35 33.19 22.22 33.27 21.19 31.29 76.39 31.29 75.35 33.19"/>
        <g>
          <polygon class="cls-6" points="75.5 72.61 19.25 72.62 19.25 72.62 19.25 41.62 75.49 41.62 75.5 72.61"/>
          <rect class="cls-3" x="21.19" y="44.27" width="2.06" height="1.66"/>
          <rect class="cls-3" x="24.58" y="44.27" width="10.14" height="1.66"/>
          <rect class="cls-3" x="36.45" y="44.27" width="10.14" height="1.66"/>
          <rect class="cls-3" x="48.24" y="44.27" width="10.14" height="1.66"/>
          <rect class="cls-3" x="59.24" y="44.26" width="7.07" height="1.66"/>
          <rect class="cls-3" x="21.19" y="46.95" width="2.06" height="1.96"/>
          <rect class="cls-3" x="23.72" y="46.95" width="2.06" height="1.96"/>
          <rect class="cls-3" x="26.24" y="46.95" width="2.06" height="1.96"/>
          <rect class="cls-3" x="28.86" y="46.95" width="2.06" height="1.96"/>
          <rect class="cls-3" x="31.46" y="46.95" width="2.06" height="1.96"/>
          <rect class="cls-3" x="34.02" y="46.95" width="2.06" height="1.96"/>
          <rect class="cls-3" x="46.34" y="46.95" width="2.06" height="1.96"/>
          <rect class="cls-3" x="53.62" y="46.95" width="4.76" height="1.96"/>
          <rect class="cls-3" x="21.19" y="49.21" width="4.59" height="1.96"/>
          <rect class="cls-3" x="26.24" y="49.21" width="2.06" height="1.96"/>
          <rect class="cls-3" x="28.86" y="49.21" width="2.06" height="1.96"/>
          <rect class="cls-3" x="31.46" y="49.21" width="2.06" height="1.96"/>
          <rect class="cls-3" x="34.02" y="49.21" width="2.06" height="1.96"/>
          <rect class="cls-3" x="46.34" y="49.21" width="2.06" height="1.96"/>
          <rect class="cls-3" x="21.19" y="51.48" width="4.59" height="1.96"/>
          <rect class="cls-3" x="26.24" y="51.48" width="2.06" height="1.96"/>
          <rect class="cls-3" x="28.86" y="51.48" width="2.06" height="1.96"/>
          <rect class="cls-3" x="31.46" y="51.48" width="2.06" height="1.96"/>
          <rect class="cls-3" x="34.02" y="51.48" width="2.06" height="1.96"/>
          <rect class="cls-3" x="46.34" y="51.48" width="2.06" height="1.96"/>
          <polygon class="cls-3" points="58.38 51.17 58.38 49.21 53.62 49.21 53.62 51.17 56.19 51.17 56.19 53.44 58.38 53.44 58.38 51.17 58.38 51.17"/>
          <rect class="cls-3" x="21.19" y="53.74" width="3.96" height="1.96"/>
          <rect class="cls-3" x="26.24" y="53.74" width="2.06" height="1.96"/>
          <rect class="cls-3" x="28.86" y="53.74" width="2.06" height="1.96"/>
          <rect class="cls-3" x="31.46" y="53.74" width="2.06" height="1.96"/>
          <rect class="cls-3" x="34.02" y="53.74" width="2.06" height="1.96"/>
          <rect class="cls-3" x="36.52" y="46.95" width="2.06" height="1.96"/>
          <rect class="cls-3" x="36.52" y="49.21" width="2.06" height="1.96"/>
          <rect class="cls-3" x="36.52" y="51.48" width="2.06" height="1.96"/>
          <rect class="cls-3" x="36.52" y="53.74" width="2.06" height="1.96"/>
          <rect class="cls-3" x="38.98" y="46.95" width="2.06" height="1.96"/>
          <rect class="cls-3" x="38.98" y="49.21" width="2.06" height="1.96"/>
          <rect class="cls-3" x="38.98" y="51.48" width="2.06" height="1.96"/>
          <rect class="cls-3" x="38.98" y="53.74" width="2.06" height="1.96"/>
          <rect class="cls-3" x="41.51" y="46.95" width="2.06" height="1.96"/>
          <rect class="cls-3" x="41.51" y="49.21" width="2.06" height="1.96"/>
          <rect class="cls-3" x="41.51" y="51.48" width="2.06" height="1.96"/>
          <rect class="cls-3" x="41.51" y="53.74" width="2.06" height="1.96"/>
          <rect class="cls-3" x="43.94" y="46.95" width="2.06" height="1.96"/>
          <rect class="cls-3" x="43.94" y="49.21" width="2.06" height="1.96"/>
          <rect class="cls-3" x="43.94" y="51.48" width="2.06" height="1.96"/>
          <rect class="cls-3" x="43.94" y="53.74" width="2.06" height="1.96"/>
          <rect class="cls-3" x="46.34" y="53.74" width="2.06" height="1.96"/>
          <rect class="cls-3" x="53.62" y="53.74" width="4.76" height="1.96"/>
          <rect class="cls-3" x="21.19" y="56" width="2.06" height="1.96"/>
          <rect class="cls-3" x="23.72" y="56" width="2.06" height="1.96"/>
          <rect class="cls-3" x="26.24" y="56.01" width="12.34" height="1.96"/>
          <rect class="cls-3" x="41.51" y="56" width="2.06" height="1.96"/>
          <rect class="cls-3" x="38.98" y="56" width="2.06" height="1.96"/>
          <rect class="cls-8" x="41.04" y="59.04" width="11.83" height="9.99"/>
          <rect class="cls-3" x="43.94" y="56" width="2.06" height="1.96"/>
          <rect class="cls-3" x="46.34" y="56" width="2.06" height="1.96"/>
          <rect class="cls-3" x="48.74" y="46.95" width="2.06" height="1.96"/>
          <rect class="cls-3" x="48.74" y="49.21" width="2.06" height="1.96"/>
          <rect class="cls-3" x="48.74" y="51.48" width="2.06" height="1.96"/>
          <rect class="cls-3" x="48.74" y="53.74" width="2.06" height="1.96"/>
          <rect class="cls-3" x="48.74" y="56" width="2.06" height="1.96"/>
          <rect class="cls-3" x="51.15" y="46.95" width="2.06" height="1.96"/>
          <rect class="cls-3" x="59.24" y="46.95" width="2.06" height="1.96"/>
          <rect class="cls-3" x="61.74" y="46.95" width="2.06" height="1.96"/>
          <rect class="cls-3" x="64.25" y="46.95" width="2.06" height="1.96"/>
          <rect class="cls-3" x="59.24" y="49.21" width="2.06" height="1.96"/>
          <rect class="cls-3" x="61.74" y="49.21" width="2.06" height="1.96"/>
          <rect class="cls-3" x="64.25" y="49.21" width="2.06" height="1.96"/>
          <rect class="cls-3" x="67.05" y="46.95" width="2.06" height="1.96"/>
          <rect class="cls-3" x="69.56" y="46.95" width="2.06" height="1.96"/>
          <rect class="cls-3" x="72.06" y="46.95" width="2.06" height="1.96"/>
          <rect class="cls-3" x="67.05" y="49.21" width="2.06" height="1.96"/>
          <rect class="cls-3" x="69.56" y="49.21" width="2.06" height="1.96"/>
          <rect class="cls-3" x="67.05" y="51.51" width="2.06" height="1.96"/>
          <rect class="cls-3" x="69.56" y="51.51" width="2.06" height="1.96"/>
          <rect class="cls-3" x="72.06" y="49.21" width="2.06" height="4.26"/>
          <rect class="cls-3" x="67.05" y="53.78" width="2.06" height="1.96"/>
          <rect class="cls-3" x="69.56" y="53.78" width="2.06" height="1.96"/>
          <rect class="cls-3" x="61.74" y="53.74" width="2.06" height="1.96"/>
          <rect class="cls-3" x="59.24" y="56" width="2.06" height="1.96"/>
          <rect class="cls-3" x="61.74" y="56" width="2.06" height="1.96"/>
          <rect class="cls-3" x="64.25" y="56" width="2.06" height="1.96"/>
          <rect class="cls-3" x="67.05" y="56" width="4.57" height="1.96"/>
          <rect class="cls-3" x="72.06" y="53.78" width="2.06" height="4.19"/>
          <rect class="cls-3" x="51.15" y="49.21" width="2.06" height="1.96"/>
          <rect class="cls-3" x="51.15" y="51.48" width="2.06" height="1.96"/>
          <rect class="cls-3" x="53.62" y="51.48" width="2.06" height="1.96"/>
          <rect class="cls-3" x="51.15" y="53.74" width="2.06" height="1.96"/>
          <rect class="cls-3" x="51.15" y="56" width="2.06" height="1.96"/>
          <rect class="cls-3" x="53.62" y="56" width="2.06" height="1.96"/>
          <rect class="cls-3" x="56" y="56" width="2.38" height="1.96"/>
          <g>
            <rect class="cls-3" x="68.61" y="44.27" width="3.8" height=".29"/>
            <rect class="cls-3" x="68.61" y="44.95" width="3.8" height=".29"/>
            <rect class="cls-3" x="68.61" y="45.64" width="3.8" height=".29"/>
            <rect class="cls-3" x="70.17" y="44.26" width=".69" height=".29"/>
          </g>
          <rect class="cls-1" x="66.04" y="66.57" width="3.52" height="2.45"/>
          <rect class="cls-1" x="21.19" y="66.57" width="9.25" height="2.45"/>
          <rect class="cls-1" x="70.3" y="66.57" width="3.52" height="2.45"/>
        </g>
        <polygon class="cls-7" points="44.29 38.62 26.97 38.62 25.16 35.39 43.59 35.39 44.29 38.62"/>
        <polygon class="cls-8" points="43.9 36.84 25.95 36.8 25.16 35.39 43.59 35.39 43.9 36.84"/>
      </g>
    </g>
  </g>
</svg>